<svg id="eikko-logo" data-name="eikko logo" xmlns="http://www.w3.org/2000/svg" viewBox="0 0 1058.5 351.02"><defs><style>.cls-1{fill:#fff;}</style></defs><title>eikko logo</title><path class="cls-1" d="M986.81,114.08c-40.1,0-69.8,30.6-69.8,73.67,0,43.37,29.7,74,69.8,74,40.4,0,69.8-30.59,69.8-74C1056.61,144.68,1027.21,114.08,986.81,114.08Zm0,133.07c-31.78,0-52.28-23.76-52.28-59.4,0-35.35,20.5-59.11,52.28-59.11s52.28,24.36,52.28,59.11C1039.09,222.8,1018.59,247.15,986.81,247.15Z"/><rect class="cls-1" x="595.08" y="117.35" width="16.93" height="141.09"/><path class="cls-1" d="M861.18,204.68,841,174.38l65.94-57H884.35l-78.42,68.32V52H789V258.44h16.93V204.68l21.69-19.31,20.49,30c19.91,29.4,32.38,44,56.15,44a53,53,0,0,0,9.5-.59V243.59a25.89,25.89,0,0,1-5,.6C889.4,244.19,881.38,234.38,861.18,204.68Z"/><path class="cls-1" d="M505.42,247.15c-16.1,0-29.3-6.1-38.41-16.75l87-75.66c3.92-3.22,10.68-8.85,10.42-9.23-13.91-20.86-32.21-31.43-59-31.43-40.11,0-69.81,30.6-69.81,73.67,0,43.36,29.7,74,69.81,74,26.61,0,50.43-12.31,60.26-34.74L552,218.82C543.59,236.6,526.72,247.15,505.42,247.15Zm-52.28-59.4c0-35.35,20.49-59.11,52.28-59.11,15.7,0,28.56,5.73,37.6,15.81L458.69,216.9A73.45,73.45,0,0,1,453.14,187.75Z"/><path class="cls-1" d="M603.4,58.24a11.8,11.8,0,0,0-12.18,11.88,12.18,12.18,0,0,0,24.36,0A11.8,11.8,0,0,0,603.4,58.24Z"/><path class="cls-1" d="M716.55,204.68l-20.2-30.3,65.94-57H739.71L661.3,185.67V52H644.37V258.44H661.3V204.68L683,185.37l20.49,30c19.9,29.4,32.37,44,56.14,44a53.14,53.14,0,0,0,9.51-.59V243.59a26,26,0,0,1-5.06.6C744.77,244.19,736.75,234.38,716.55,204.68Z"/><path class="cls-1" d="M124,.23a48.57,48.57,0,0,0-48.5,48.53v36.3H50A48.55,48.55,0,0,0,1.46,132.87l0,.12L1.39,217.5v0h0A48.56,48.56,0,0,0,49.85,266l25.59,0v36.71c0,26.64,21.3,47.5,48.5,47.5,26.69,0,47.71-20.11,48.48-46l0-6.64A48.56,48.56,0,0,0,124,249.05l-31.51,0v-147H124a48.56,48.56,0,0,0,48.5-48.5V48.71A48.55,48.55,0,0,0,124,.23ZM75.45,249l-25.56,0a31.54,31.54,0,0,1-31.5-31.48l.06-84a31.53,31.53,0,0,1,31-31.49h26Zm48.5,17a31.54,31.54,0,0,1,31.5,31.51v5.17c0,17.1-13.84,30.5-31.5,30.5-17.48,0-31.21-13.12-31.5-30V284c0-.1,0-.2,0-.3V266Zm31.5-212.49a31.52,31.52,0,0,1-31,31.49h-32V48.73a31.5,31.5,0,1,1,63,0Z"/><path class="cls-1" d="M245,175.2l91.38-91.34.06-.06.14-.14.06-.06.12-.13a48.5,48.5,0,0,0-68.91-68.26L198.73,84.35a48.5,48.5,0,0,0,0,68.64L221,175.2l-22.26,22.26a48.44,48.44,0,0,0-.66,67.92l0,0,69.79,69.8a48.5,48.5,0,0,0,68.65-68.53Zm-34.29-34.28a31.54,31.54,0,0,1,0-44.56l69.17-69.15h0a31.5,31.5,0,0,1,44.64,44.46L233,163.18ZM324.46,323.2a31.49,31.49,0,0,1-44.58,0l-68.57-68.58-.6-.61a31.5,31.5,0,0,1,0-44.51L233,187.22l91.45,91.43h0a31.48,31.48,0,0,1,0,44.54Z"/></svg>